<svg xmlns="http://www.w3.org/2000/svg" viewBox="0 0 1200 800" width="1200" height="800" role="img"><defs><linearGradient id="w" x1="0" y1="0" x2="0" y2="1"><stop offset="0" stop-color="#e2e6e9"/><stop offset="1" stop-color="#d3d9dd"/></linearGradient></defs><rect width="1200" height="800" fill="url(#w)"/>
<rect y="620" width="1200" height="180" fill="#b7b0a7"/>
<rect x="80" y="80" width="1040" height="360" rx="10" fill="#333c47" stroke="rgba(0,0,0,.13)"/>
<rect x="96" y="96" width="1008" height="12" rx="3" fill="#2a323b"/><rect x="96" y="212" width="1008" height="12" rx="3" fill="#2a323b"/><rect x="96" y="328" width="1008" height="12" rx="3" fill="#2a323b"/>
<g><rect x="110" y="54" width="37" height="54" rx="3" fill="#c9cdd1" opacity=".5"/><rect x="172" y="74" width="31" height="34" rx="3" fill="#d9885a" opacity=".6"/><rect x="234" y="73" width="26" height="35" rx="3" fill="#d9885a" opacity=".7"/><rect x="296" y="42" width="23" height="66" rx="3" fill="#c9cdd1" opacity=".8"/><rect x="358" y="37" width="33" height="71" rx="3" fill="#d9885a" opacity=".5"/><rect x="420" y="34" width="25" height="74" rx="3" fill="#d9885a" opacity=".6"/><rect x="482" y="50" width="24" height="58" rx="3" fill="#c9cdd1" opacity=".7"/><rect x="544" y="45" width="31" height="63" rx="3" fill="#d9885a" opacity=".8"/><rect x="606" y="44" width="35" height="64" rx="3" fill="#d9885a" opacity=".5"/><rect x="668" y="32" width="26" height="76" rx="3" fill="#c9cdd1" opacity=".6"/><rect x="730" y="48" width="36" height="60" rx="3" fill="#d9885a" opacity=".7"/><rect x="792" y="63" width="23" height="45" rx="3" fill="#d9885a" opacity=".8"/><rect x="854" y="72" width="22" height="36" rx="3" fill="#c9cdd1" opacity=".5"/><rect x="916" y="45" width="34" height="63" rx="3" fill="#d9885a" opacity=".6"/><rect x="978" y="67" width="32" height="41" rx="3" fill="#d9885a" opacity=".7"/><rect x="1040" y="70" width="22" height="38" rx="3" fill="#c9cdd1" opacity=".8"/></g>
<g><rect x="130" y="156" width="44" height="68" rx="4" fill="#c9cdd1" opacity=".7"/><rect x="212" y="173" width="47" height="51" rx="4" fill="#2a323b" opacity=".7"/><rect x="294" y="176" width="48" height="48" rx="4" fill="#c9cdd1" opacity=".7"/><rect x="376" y="166" width="41" height="58" rx="4" fill="#2a323b" opacity=".7"/><rect x="458" y="170" width="43" height="54" rx="4" fill="#c9cdd1" opacity=".7"/><rect x="540" y="152" width="44" height="72" rx="4" fill="#2a323b" opacity=".7"/><rect x="622" y="183" width="49" height="41" rx="4" fill="#c9cdd1" opacity=".7"/><rect x="704" y="149" width="42" height="75" rx="4" fill="#2a323b" opacity=".7"/><rect x="786" y="162" width="35" height="62" rx="4" fill="#c9cdd1" opacity=".7"/><rect x="868" y="176" width="31" height="48" rx="4" fill="#2a323b" opacity=".7"/><rect x="950" y="166" width="43" height="58" rx="4" fill="#c9cdd1" opacity=".7"/><rect x="1032" y="182" width="33" height="42" rx="4" fill="#2a323b" opacity=".7"/></g>
<rect x="80" y="470" width="1040" height="22" rx="5" fill="#ececea" stroke="rgba(0,0,0,.12)"/>
<rect x="80" y="492" width="1040" height="8" fill="rgba(0,0,0,.10)"/>
<rect x="92.0" y="500" width="164.3" height="120" rx="4" fill="#333c47" stroke="rgba(0,0,0,.13)" stroke-width="1.5"/><rect x="99.0" y="507" width="150.3" height="106" rx="2" fill="none" stroke="rgba(0,0,0,.09)" stroke-width="1.5"/><circle cx="242.3" cy="560" r="4" fill="#c9cdd1"/><rect x="262.3" y="500" width="164.3" height="120" rx="4" fill="#2a323b" stroke="rgba(0,0,0,.13)" stroke-width="1.5"/><rect x="269.3" y="507" width="150.3" height="106" rx="2" fill="none" stroke="rgba(0,0,0,.09)" stroke-width="1.5"/><circle cx="412.7" cy="560" r="4" fill="#c9cdd1"/><rect x="432.7" y="500" width="164.3" height="120" rx="4" fill="#333c47" stroke="rgba(0,0,0,.13)" stroke-width="1.5"/><rect x="439.7" y="507" width="150.3" height="106" rx="2" fill="none" stroke="rgba(0,0,0,.09)" stroke-width="1.5"/><circle cx="583.0" cy="560" r="4" fill="#c9cdd1"/><rect x="603.0" y="500" width="164.3" height="120" rx="4" fill="#2a323b" stroke="rgba(0,0,0,.13)" stroke-width="1.5"/><rect x="610.0" y="507" width="150.3" height="106" rx="2" fill="none" stroke="rgba(0,0,0,.09)" stroke-width="1.5"/><circle cx="753.3" cy="560" r="4" fill="#c9cdd1"/><rect x="773.3" y="500" width="164.3" height="120" rx="4" fill="#333c47" stroke="rgba(0,0,0,.13)" stroke-width="1.5"/><rect x="780.3" y="507" width="150.3" height="106" rx="2" fill="none" stroke="rgba(0,0,0,.09)" stroke-width="1.5"/><circle cx="923.7" cy="560" r="4" fill="#c9cdd1"/><rect x="943.7" y="500" width="164.3" height="120" rx="4" fill="#2a323b" stroke="rgba(0,0,0,.13)" stroke-width="1.5"/><rect x="950.7" y="507" width="150.3" height="106" rx="2" fill="none" stroke="rgba(0,0,0,.09)" stroke-width="1.5"/><circle cx="1094.0" cy="560" r="4" fill="#c9cdd1"/>
<g transform="translate(1000,430)"><rect x="-20" y="12" width="40" height="46" rx="6" fill="#d9885a" opacity=".85"/><path d="M0 12 C-30 -6 -26 -36 0 -40 C26 -36 30 -6 0 12Z" fill="#d9885a"/></g></svg>