<svg xmlns="http://www.w3.org/2000/svg" viewBox="0 0 1200 800" width="1200" height="800" role="img"><defs><linearGradient id="w" x1="0" y1="0" x2="0" y2="1"><stop offset="0" stop-color="#e2e6e9"/><stop offset="1" stop-color="#d3d9dd"/></linearGradient></defs><rect width="1200" height="800" fill="url(#w)"/>
<rect y="600" width="1200" height="200" fill="#b7b0a7"/>
<path d="M0 600 L1200 600 L1200 640 L0 640Z" fill="rgba(0,0,0,.06)"/>
<rect x="90.0" y="90" width="110.5" height="200" rx="4" fill="#333c47" stroke="rgba(0,0,0,.13)" stroke-width="1.5"/><rect x="97.0" y="97" width="96.5" height="186" rx="2" fill="none" stroke="rgba(0,0,0,.09)" stroke-width="1.5"/><rect x="184.5" y="160" width="4" height="60.0" rx="2" fill="#c9cdd1"/><rect x="206.5" y="90" width="110.5" height="200" rx="4" fill="#2a323b" stroke="rgba(0,0,0,.13)" stroke-width="1.5"/><rect x="213.5" y="97" width="96.5" height="186" rx="2" fill="none" stroke="rgba(0,0,0,.09)" stroke-width="1.5"/><rect x="301.0" y="160" width="4" height="60.0" rx="2" fill="#c9cdd1"/><rect x="323.0" y="90" width="110.5" height="200" rx="4" fill="#333c47" stroke="rgba(0,0,0,.13)" stroke-width="1.5"/><rect x="330.0" y="97" width="96.5" height="186" rx="2" fill="none" stroke="rgba(0,0,0,.09)" stroke-width="1.5"/><rect x="417.5" y="160" width="4" height="60.0" rx="2" fill="#c9cdd1"/><rect x="439.5" y="90" width="110.5" height="200" rx="4" fill="#2a323b" stroke="rgba(0,0,0,.13)" stroke-width="1.5"/><rect x="446.5" y="97" width="96.5" height="186" rx="2" fill="none" stroke="rgba(0,0,0,.09)" stroke-width="1.5"/><rect x="534.0" y="160" width="4" height="60.0" rx="2" fill="#c9cdd1"/>
<rect x="700.0" y="90" width="122.7" height="200" rx="4" fill="#333c47" stroke="rgba(0,0,0,.13)" stroke-width="1.5"/><rect x="707.0" y="97" width="108.7" height="186" rx="2" fill="none" stroke="rgba(0,0,0,.09)" stroke-width="1.5"/><rect x="806.7" y="160" width="4" height="60.0" rx="2" fill="#c9cdd1"/><rect x="828.7" y="90" width="122.7" height="200" rx="4" fill="#2a323b" stroke="rgba(0,0,0,.13)" stroke-width="1.5"/><rect x="835.7" y="97" width="108.7" height="186" rx="2" fill="none" stroke="rgba(0,0,0,.09)" stroke-width="1.5"/><rect x="935.3" y="160" width="4" height="60.0" rx="2" fill="#c9cdd1"/><rect x="957.3" y="90" width="122.7" height="200" rx="4" fill="#333c47" stroke="rgba(0,0,0,.13)" stroke-width="1.5"/><rect x="964.3" y="97" width="108.7" height="186" rx="2" fill="none" stroke="rgba(0,0,0,.09)" stroke-width="1.5"/><rect x="1064.0" y="160" width="4" height="60.0" rx="2" fill="#c9cdd1"/>
<rect x="60" y="330" width="1080" height="26" rx="4" fill="#d3d9dd"/>
<g opacity=".5"><rect x="64" y="300" width="70" height="26" rx="2" fill="#d3d9dd" stroke="rgba(255,255,255,.5)"/><rect x="140" y="300" width="70" height="26" rx="2" fill="#d3d9dd" stroke="rgba(255,255,255,.5)"/><rect x="216" y="300" width="70" height="26" rx="2" fill="#d3d9dd" stroke="rgba(255,255,255,.5)"/><rect x="292" y="300" width="70" height="26" rx="2" fill="#d3d9dd" stroke="rgba(255,255,255,.5)"/><rect x="368" y="300" width="70" height="26" rx="2" fill="#d3d9dd" stroke="rgba(255,255,255,.5)"/><rect x="444" y="300" width="70" height="26" rx="2" fill="#d3d9dd" stroke="rgba(255,255,255,.5)"/><rect x="520" y="300" width="70" height="26" rx="2" fill="#d3d9dd" stroke="rgba(255,255,255,.5)"/><rect x="596" y="300" width="70" height="26" rx="2" fill="#d3d9dd" stroke="rgba(255,255,255,.5)"/><rect x="672" y="300" width="70" height="26" rx="2" fill="#d3d9dd" stroke="rgba(255,255,255,.5)"/><rect x="748" y="300" width="70" height="26" rx="2" fill="#d3d9dd" stroke="rgba(255,255,255,.5)"/><rect x="824" y="300" width="70" height="26" rx="2" fill="#d3d9dd" stroke="rgba(255,255,255,.5)"/><rect x="900" y="300" width="70" height="26" rx="2" fill="#d3d9dd" stroke="rgba(255,255,255,.5)"/><rect x="976" y="300" width="70" height="26" rx="2" fill="#d3d9dd" stroke="rgba(255,255,255,.5)"/><rect x="1052" y="300" width="70" height="26" rx="2" fill="#d3d9dd" stroke="rgba(255,255,255,.5)"/></g>
<rect x="60" y="430" width="1080" height="24" rx="5" fill="#ececea" stroke="rgba(0,0,0,.12)"/>
<rect x="60" y="454" width="1080" height="8" fill="rgba(0,0,0,.10)"/>
<rect x="70.0" y="462" width="146.3" height="140" rx="4" fill="#333c47" stroke="rgba(0,0,0,.13)" stroke-width="1.5"/><rect x="77.0" y="469" width="132.3" height="126" rx="2" fill="none" stroke="rgba(0,0,0,.09)" stroke-width="1.5"/><rect x="200.3" y="511" width="4" height="42.0" rx="2" fill="#c9cdd1"/><rect x="222.3" y="462" width="146.3" height="140" rx="4" fill="#2a323b" stroke="rgba(0,0,0,.13)" stroke-width="1.5"/><rect x="229.3" y="469" width="132.3" height="126" rx="2" fill="none" stroke="rgba(0,0,0,.09)" stroke-width="1.5"/><rect x="352.6" y="511" width="4" height="42.0" rx="2" fill="#c9cdd1"/><rect x="374.6" y="462" width="146.3" height="140" rx="4" fill="#333c47" stroke="rgba(0,0,0,.13)" stroke-width="1.5"/><rect x="381.6" y="469" width="132.3" height="126" rx="2" fill="none" stroke="rgba(0,0,0,.09)" stroke-width="1.5"/><rect x="504.9" y="511" width="4" height="42.0" rx="2" fill="#c9cdd1"/><rect x="526.9" y="462" width="146.3" height="140" rx="4" fill="#2a323b" stroke="rgba(0,0,0,.13)" stroke-width="1.5"/><rect x="533.9" y="469" width="132.3" height="126" rx="2" fill="none" stroke="rgba(0,0,0,.09)" stroke-width="1.5"/><rect x="657.1" y="511" width="4" height="42.0" rx="2" fill="#c9cdd1"/><rect x="679.1" y="462" width="146.3" height="140" rx="4" fill="#333c47" stroke="rgba(0,0,0,.13)" stroke-width="1.5"/><rect x="686.1" y="469" width="132.3" height="126" rx="2" fill="none" stroke="rgba(0,0,0,.09)" stroke-width="1.5"/><rect x="809.4" y="511" width="4" height="42.0" rx="2" fill="#c9cdd1"/><rect x="831.4" y="462" width="146.3" height="140" rx="4" fill="#2a323b" stroke="rgba(0,0,0,.13)" stroke-width="1.5"/><rect x="838.4" y="469" width="132.3" height="126" rx="2" fill="none" stroke="rgba(0,0,0,.09)" stroke-width="1.5"/><rect x="961.7" y="511" width="4" height="42.0" rx="2" fill="#c9cdd1"/><rect x="983.7" y="462" width="146.3" height="140" rx="4" fill="#333c47" stroke="rgba(0,0,0,.13)" stroke-width="1.5"/><rect x="990.7" y="469" width="132.3" height="126" rx="2" fill="none" stroke="rgba(0,0,0,.09)" stroke-width="1.5"/><rect x="1114.0" y="511" width="4" height="42.0" rx="2" fill="#c9cdd1"/>
<rect x="470" y="404" width="150" height="28" rx="6" fill="#c9cdd1" opacity=".55"/>
<path d="M545 404 v-52 a26 26 0 0 1 52 0 v14" fill="none" stroke="#c9cdd1" stroke-width="7" stroke-linecap="round"/>
<g><line x1="300" y1="40" x2="300" y2="118" stroke="#c9cdd1" stroke-width="3"/><path d="M266 160 L334 160 L322 118 L278 118Z" fill="#d9885a" opacity=".9"/><line x1="600" y1="40" x2="600" y2="118" stroke="#c9cdd1" stroke-width="3"/><path d="M566 160 L634 160 L622 118 L578 118Z" fill="#d9885a" opacity=".9"/><line x1="900" y1="40" x2="900" y2="118" stroke="#c9cdd1" stroke-width="3"/><path d="M866 160 L934 160 L922 118 L878 118Z" fill="#d9885a" opacity=".9"/></g>
<g transform="translate(1000,352)"><rect x="-22" y="26" width="44" height="52" rx="6" fill="#d9885a" opacity=".85"/><path d="M0 26 C-34 6 -30 -30 0 -34 C30 -30 34 6 0 26Z" fill="#d9885a"/></g></svg>